<?xml version="1.0" encoding="utf-8"?><svg version="1.1" id="Layer_1" xmlns="http://www.w3.org/2000/svg" xmlns:xlink="http://www.w3.org/1999/xlink" x="0px" y="0px" viewBox="0 0 94.73 122.88" style="enable-background:new 0 0 94.73 122.88" xml:space="preserve"><style type="text/css">.st0{fill-rule:evenodd;clip-rule:evenodd;}</style><g><path class="st0" d="M63.53,17.74c-1.25,4.75-1.77,10.28-1.8,16.3h28.35c0.49-4.96,0.24-9.28-0.55-13.13C87.3,10,83.4,6.96,75.81,0 C69.68,6.13,65.87,8.89,63.53,17.74L63.53,17.74z M6.19,17.74c-1.25,4.75-1.77,10.28-1.8,16.3h28.35 c0.49-4.96,0.24-9.28-0.55-13.13C29.97,10,26.06,6.96,18.47,0C12.34,6.13,8.53,8.89,6.19,17.74L6.19,17.74z M4.58,115.43h0.31 v-7.94h-1.1c-2.08,0-3.79-1.71-3.79-3.79V46.01c0-2.08,1.7-3.79,3.79-3.79h29.82c2.08,0,3.79,1.71,3.79,3.79v57.69 c0,2.08-1.71,3.79-3.79,3.79h-1.1v7.94h0.31c2.05,0,3.73,1.68,3.73,3.73v0c0,2.05-1.68,3.73-3.73,3.73H4.58 c-2.05,0-3.73-1.68-3.73-3.73v0C0.86,117.1,2.53,115.43,4.58,115.43L4.58,115.43z M61.92,115.43h0.31v-7.94h-1.1 c-2.08,0-3.79-1.71-3.79-3.79V46.01c0-2.08,1.7-3.79,3.79-3.79h29.82c2.08,0,3.79,1.71,3.79,3.79v57.69c0,2.08-1.71,3.79-3.79,3.79 h-1.1v7.94h0.31c2.05,0,3.73,1.68,3.73,3.73v0c0,2.05-1.68,3.73-3.73,3.73H61.92c-2.05,0-3.73-1.68-3.73-3.73v0 C58.19,117.1,59.87,115.43,61.92,115.43L61.92,115.43z"/></g></svg>